# xmcd CD database file
#
# Track frame offsets:
#	150
#	12212
#	19522
#	32192
#	49282
#	61025
#	76467
#	89040
#	101262
#	112087
#	123167
#	134835
#	149772
#	169737
#	185315
#	199745
#	212232
#	223602
#	235770
#	251352
#	266660
#
# Disc length: 3664 seconds
#
# Revision: 1
# Processed by: cddbd v1.5.2PL0 Copyright (c) Steve Scherf et al.
# Submitted via: CDex 1.70beta3
#
DISCID=330e4e15
DTITLE=Various Artist - アニメ主題歌大全集Disc08
DYEAR=1900
DGENRE=Blues
TTITLE0=山本リンダ/奇跡の歌
TTITLE1=山本リンダ/完全にしあわせ
TTITLE2=研ナオコ/愛をもう一度
TTITLE3=研ナオコ/なつかしい朝
TTITLE4=日下まろん/誰よりも遠くへ
TTITLE5=日下まろん/ぼくのミシシッピー
TTITLE6=潘恵子/裸足のフローネ
TTITLE7=潘恵子/フローネの夢
TTITLE8=竹田えり／東京放送児童合唱団/クオレ物語
TTITLE9=竹田えり／東京放送児童合唱団/白い日記
TTITLE10=なぎら健一/フーセンのドラ太郎
TTITLE11=なぎら健一/花いちもんめ
TTITLE12=潘恵子／スラップスティック/星空のメッセージ
TTITLE13=高梨雅樹/コスモスドリーム～宇宙にかける夢～
TTITLE14=石川まなみ/まほろば伝説
TTITLE15=日下まろん／東京放送児童合唱団/ワンワン三銃士
TTITLE16=日下まろん/そういうお主は？
TTITLE17=松谷祐子/ラムのラブソング
TTITLE18=松谷祐子/宇宙は大ヘンだ!
TTITLE19=やまがたすみこ/虹になりたい
TTITLE20=やまがたすみこ/森へおいで
EXTD=
EXTT0=
EXTT1=
EXTT2=
EXTT3=
EXTT4=
EXTT5=
EXTT6=
EXTT7=
EXTT8=
EXTT9=
EXTT10=
EXTT11=
EXTT12=
EXTT13=
EXTT14=
EXTT15=
EXTT16=
EXTT17=
EXTT18=
EXTT19=
EXTT20=
PLAYORDER=
